<?xml version='1.0' encoding='UTF-8'?>
<svg xmlns:xlink="http://www.w3.org/1999/xlink" xmlns="http://www.w3.org/2000/svg" version="1.1" baseProfile="full" width="500" height="600">
  <title>VFPt_imagecharge_plane_horizontal_plusminus</title>
  <desc>VFPt_imagecharge_plane_horizontal_plusminus
created with VectorFieldPlot 1.1
http://commons.wikimedia.org/wiki/User:Geek3/VectorFieldPlot

about: http://commons.wikimedia.org/wiki/File:VFPt_imagecharge_plane_horizontal_plusminus.svg
rights: GNU Free Documentation license,
        Creative Commons Attribution ShareAlike license
  </desc>
  <defs>
    <radialGradient id="white_spot" cx="0.65" cy="0.7" r="0.75">
      <stop stop-color="#ffffff" offset="0" stop-opacity="0.7"/>
      <stop stop-color="#ffffff" offset="0.1" stop-opacity="0.5"/>
      <stop stop-color="#ffffff" offset="0.6" stop-opacity="0"/>
      <stop stop-color="#000000" offset="0.6" stop-opacity="0"/>
      <stop stop-color="#000000" offset="0.75" stop-opacity="0.05"/>
      <stop stop-color="#000000" offset="0.85" stop-opacity="0.15"/>
      <stop stop-color="#000000" offset="1" stop-opacity="0.5"/>
    </radialGradient>
    <path id="arrow1" stroke="none" fill="#000000" transform="scale(0.01)" d="M 0.3,0 L -2.2,2.25 L 3.8,0 L -2.2,-2.25 L 0.3,0 Z"/>
  </defs>
  <rect id="background" x="0" y="0" width="500" height="600" fill="#ffffff"/>
  <g id="image" transform="translate(250.0,300.0) scale(100.0,-100.0)">
    <g id="fieldlines" fill="none" stroke="#000000" stroke-width="0.02" stroke-linejoin="round" stroke-linecap="round">
      <g id="fieldline1">
        <path d="M 0.0000,1.5000 L 0.0000,3.0100"/>
        <g id="arrows1">
          <use xlink:href="#arrow1" transform="translate(0.0000,2.4060) rotate(90.00) scale(2.0)"/>
        </g>
      </g>
      <path stroke-dasharray="0.08,0.12" stroke-linecap="butt" d="M 0.0000,-3.0100 L 0.0000,-1.5000" id="fieldline2"/>
      <g id="fieldline3">
        <path d="M 0.0000,1.5000 L -0.1117,1.8575 L -0.1953,2.1182 L -0.2727,2.3530 L -0.3488,2.5771 L -0.4250,2.7952 L -0.5024,3.0100"/>
        <g id="arrows3">
          <use xlink:href="#arrow1" transform="translate(-0.2918,2.4092) rotate(108.75) scale(2.0)"/>
        </g>
      </g>
      <path stroke-dasharray="0.08,0.12" stroke-linecap="butt" d="M -0.5024,-3.0100 L -0.4250,-2.7952 L -0.3488,-2.5771 L -0.2727,-2.3530 L -0.1953,-2.1182 L -0.1117,-1.8575 L 0.0000,-1.5000" id="fieldline4"/>
      <g id="fieldline5">
        <path d="M 0.0000,1.5000 L -0.1766,1.7558 L -0.3008,1.9319 L -0.4136,2.0878 L -0.5217,2.2332 L -0.6278,2.3719 L -0.7333,2.5058 L -0.8389,2.6360 L -0.9451,2.7632 L -1.0523,2.8878 L -1.1607,3.0100"/>
        <g id="arrows5">
          <use xlink:href="#arrow1" transform="translate(-0.6706,2.4262) rotate(128.22) scale(2.0)"/>
        </g>
      </g>
      <path stroke-dasharray="0.08,0.12" stroke-linecap="butt" d="M -1.1607,-3.0100 L -1.0523,-2.8878 L -0.9451,-2.7632 L -0.8389,-2.6360 L -0.7333,-2.5058 L -0.6278,-2.3719 L -0.5217,-2.2332 L -0.4136,-2.0878 L -0.3008,-1.9319 L -0.1766,-1.7558 L 0.0000,-1.5000" id="fieldline6"/>
      <g id="fieldline7">
        <path d="M 0.0000,1.5000 L -0.2149,1.6691 L -0.3601,1.7808 L -0.4896,1.8774 L -0.6111,1.9651 L -0.7280,2.0466 L -0.8422,2.1233 L -0.9547,2.1959 L -1.0661,2.2650 L -1.1769,2.3309 L -1.2874,2.3938 L -1.3977,2.4538 L -1.5080,2.5110 L -1.6185,2.5657 L -1.7291,2.6177 L -1.8400,2.6671 L -1.9511,2.7140 L -2.0624,2.7583 L -2.1740,2.8002 L -2.2858,2.8395 L -2.3978,2.8764 L -2.5100,2.9107"/>
        <g id="arrows7">
          <use xlink:href="#arrow1" transform="translate(-1.4375,2.4744) rotate(152.57) scale(2.0)"/>
        </g>
      </g>
      <path stroke-dasharray="0.08,0.12" stroke-linecap="butt" d="M -2.5100,-2.9107 L -2.3978,-2.8764 L -2.2858,-2.8395 L -2.1740,-2.8002 L -2.0624,-2.7583 L -1.9511,-2.7140 L -1.8400,-2.6671 L -1.7291,-2.6177 L -1.6185,-2.5657 L -1.5080,-2.5110 L -1.3977,-2.4538 L -1.2874,-2.3938 L -1.1769,-2.3309 L -1.0661,-2.2650 L -0.9547,-2.1959 L -0.8422,-2.1233 L -0.7280,-2.0466 L -0.6111,-1.9651 L -0.4896,-1.8774 L -0.3601,-1.7808 L -0.2149,-1.6691 L 0.0000,-1.5000" id="fieldline8"/>
      <g id="fieldline9">
        <path d="M 0.0000,1.5000 L -0.2356,1.5912 L -0.3900,1.6487 L -0.5244,1.6964 L -0.6480,1.7378 L -0.7649,1.7744 L -0.8770,1.8071 L -0.9857,1.8364 L -1.0918,1.8624 L -1.1956,1.8855 L -1.2977,1.9057 L -1.3981,1.9232 L -1.4972,1.9380 L -1.5950,1.9501 L -1.6916,1.9598 L -1.7870,1.9669 L -1.8814,1.9715 L -1.9746,1.9737 L -2.0667,1.9735 L -2.1577,1.9708 L -2.2476,1.9658 L -2.3363,1.9585 L -2.4237,1.9488 L -2.5100,1.9369"/>
        <g id="arrows9">
          <use xlink:href="#arrow1" transform="translate(-1.4816,1.9354) rotate(172.16) scale(2.0)"/>
        </g>
      </g>
      <path stroke-dasharray="0.08,0.12" stroke-linecap="butt" d="M -2.5100,-1.9369 L -2.4237,-1.9488 L -2.3363,-1.9585 L -2.2476,-1.9658 L -2.1577,-1.9708 L -2.0667,-1.9735 L -1.9746,-1.9737 L -1.8814,-1.9715 L -1.7870,-1.9669 L -1.6916,-1.9598 L -1.5950,-1.9501 L -1.4972,-1.9380 L -1.3981,-1.9232 L -1.2977,-1.9057 L -1.1956,-1.8855 L -1.0918,-1.8624 L -0.9857,-1.8364 L -0.8770,-1.8071 L -0.7649,-1.7744 L -0.6480,-1.7378 L -0.5244,-1.6964 L -0.3900,-1.6487 L -0.2356,-1.5912 L 0.0000,-1.5000" id="fieldline10"/>
      <g id="fieldline11">
        <path d="M 0.0000,1.5000 L -0.2421,1.5182 L -0.3958,1.5276 L -0.5266,1.5334 L -0.6446,1.5363 L -0.7540,1.5367 L -0.8572,1.5347 L -0.9555,1.5304 L -1.0498,1.5239 L -1.1407,1.5153 L -1.2286,1.5045 L -1.3137,1.4917 L -1.3963,1.4768 L -1.4765,1.4600 L -1.5545,1.4412 L -1.6302,1.4204 L -1.7038,1.3978 L -1.7752,1.3733 L -1.8445,1.3470 L -1.9118,1.3189 L -1.9769,1.2891 L -2.0400,1.2576 L -2.1009,1.2245 L -2.1597,1.1898 L -2.2163,1.1536 L -2.2708,1.1159 L -2.3231,1.0768 L -2.3732,1.0364 L -2.4210,0.9947 L -2.4667,0.9517 L -2.5100,0.9076"/>
        <g id="arrows11">
          <use xlink:href="#arrow1" transform="translate(-1.5930,1.4305) rotate(-164.40) scale(2.0)"/>
        </g>
      </g>
      <path stroke-dasharray="0.08,0.12" stroke-linecap="butt" d="M -2.5100,-0.9076 L -2.4667,-0.9517 L -2.4210,-0.9947 L -2.3732,-1.0364 L -2.3231,-1.0768 L -2.2708,-1.1159 L -2.2163,-1.1536 L -2.1597,-1.1898 L -2.1009,-1.2245 L -2.0400,-1.2576 L -1.9769,-1.2891 L -1.9118,-1.3189 L -1.8445,-1.3470 L -1.7752,-1.3733 L -1.7038,-1.3978 L -1.6302,-1.4204 L -1.5545,-1.4412 L -1.4765,-1.4600 L -1.3963,-1.4768 L -1.3137,-1.4917 L -1.2286,-1.5045 L -1.1407,-1.5153 L -1.0498,-1.5239 L -0.9555,-1.5304 L -0.8572,-1.5347 L -0.7540,-1.5367 L -0.6446,-1.5363 L -0.5266,-1.5334 L -0.3958,-1.5276 L -0.2421,-1.5182 L 0.0000,-1.5000" id="fieldline12"/>
      <g id="fieldline13">
        <path d="M 0.0000,1.5000 L -0.2370,1.4482 L -0.3828,1.4141 L -0.5041,1.3835 L -0.6111,1.3539 L -0.7085,1.3246 L -0.7986,1.2949 L -0.8828,1.2645 L -0.9622,1.2334 L -1.0372,1.2012 L -1.1084,1.1681 L -1.1761,1.1339 L -1.2404,1.0986 L -1.3016,1.0622 L -1.3599,1.0247 L -1.4152,0.9862 L -1.4678,0.9465 L -1.5176,0.9059 L -1.5647,0.8642 L -1.6092,0.8216 L -1.6510,0.7781 L -1.6903,0.7337 L -1.7269,0.6885 L -1.7610,0.6425 L -1.7925,0.5959 L -1.8214,0.5485 L -1.8478,0.5006 L -1.8717,0.4521 L -1.8931,0.4031 L -1.9119,0.3536 L -1.9282,0.3038 L -1.9420,0.2537 L -1.9532,0.2033 L -1.9620,0.1527 L -1.9683,0.1019 L -1.9720,0.0510 L -1.9733,-0.0000"/>
        <g id="arrows13">
          <use xlink:href="#arrow1" transform="translate(-1.4937,0.9251) rotate(-140.19) scale(2.0)"/>
        </g>
      </g>
      <path stroke-dasharray="0.08,0.12" stroke-linecap="butt" d="M -1.9733,0.0000 L -1.9720,-0.0510 L -1.9683,-0.1019 L -1.9620,-0.1527 L -1.9532,-0.2033 L -1.9420,-0.2537 L -1.9282,-0.3038 L -1.9119,-0.3536 L -1.8931,-0.4031 L -1.8717,-0.4521 L -1.8478,-0.5006 L -1.8214,-0.5485 L -1.7925,-0.5959 L -1.7610,-0.6425 L -1.7269,-0.6885 L -1.6903,-0.7337 L -1.6510,-0.7781 L -1.6092,-0.8216 L -1.5647,-0.8642 L -1.5176,-0.9059 L -1.4678,-0.9465 L -1.4152,-0.9862 L -1.3599,-1.0247 L -1.3016,-1.0622 L -1.2404,-1.0986 L -1.1761,-1.1339 L -1.1084,-1.1681 L -1.0372,-1.2012 L -0.9622,-1.2334 L -0.8828,-1.2645 L -0.7986,-1.2949 L -0.7085,-1.3246 L -0.6111,-1.3539 L -0.5041,-1.3835 L -0.3828,-1.4141 L -0.2370,-1.4482 L 0.0000,-1.5000" id="fieldline14"/>
      <g id="fieldline15">
        <path d="M 0.0000,1.5000 L -0.2177,1.3812 L -0.3475,1.3079 L -0.4529,1.2458 L -0.5438,1.1893 L -0.6248,1.1362 L -0.6982,1.0852 L -0.7655,1.0354 L -0.8275,0.9864 L -0.8848,0.9379 L -0.9381,0.8897 L -0.9875,0.8416 L -1.0333,0.7934 L -1.0758,0.7452 L -1.1151,0.6968 L -1.1513,0.6482 L -1.1845,0.5994 L -1.2148,0.5504 L -1.2423,0.5011 L -1.2671,0.4517 L -1.2891,0.4020 L -1.3085,0.3522 L -1.3252,0.3022 L -1.3393,0.2521 L -1.3508,0.2018 L -1.3597,0.1514 L -1.3661,0.1010 L -1.3699,0.0505 L -1.3712,-0.0000"/>
        <g id="arrows15">
          <use xlink:href="#arrow1" transform="translate(-1.0508,0.7733) rotate(-130.99) scale(2.0)"/>
        </g>
      </g>
      <path stroke-dasharray="0.08,0.12" stroke-linecap="butt" d="M -1.3712,0.0000 L -1.3699,-0.0505 L -1.3661,-0.1010 L -1.3597,-0.1514 L -1.3508,-0.2018 L -1.3393,-0.2521 L -1.3252,-0.3022 L -1.3085,-0.3522 L -1.2891,-0.4020 L -1.2671,-0.4517 L -1.2423,-0.5011 L -1.2148,-0.5504 L -1.1845,-0.5994 L -1.1513,-0.6482 L -1.1151,-0.6968 L -1.0758,-0.7452 L -1.0333,-0.7934 L -0.9875,-0.8416 L -0.9381,-0.8897 L -0.8848,-0.9379 L -0.8275,-0.9864 L -0.7655,-1.0354 L -0.6982,-1.0852 L -0.6248,-1.1362 L -0.5438,-1.1893 L -0.4529,-1.2458 L -0.3475,-1.3079 L -0.2177,-1.3812 L 0.0000,-1.5000" id="fieldline16"/>
      <g id="fieldline17">
        <path d="M 0.0000,1.5000 L -0.1862,1.3169 L -0.2938,1.2081 L -0.3784,1.1193 L -0.4502,1.0405 L -0.5127,0.9683 L -0.5680,0.9006 L -0.6175,0.8363 L -0.6619,0.7743 L -0.7020,0.7143 L -0.7381,0.6557 L -0.7705,0.5982 L -0.7996,0.5417 L -0.8254,0.4859 L -0.8482,0.4307 L -0.8681,0.3760 L -0.8852,0.3217 L -0.8995,0.2676 L -0.9111,0.2139 L -0.9201,0.1602 L -0.9265,0.1067 L -0.9304,0.0534 L -0.9316,-0.0000"/>
        <g id="arrows17">
          <use xlink:href="#arrow1" transform="translate(-0.7197,0.6851) rotate(-121.18) scale(2.0)"/>
        </g>
      </g>
      <path stroke-dasharray="0.08,0.12" stroke-linecap="butt" d="M -0.9316,0.0000 L -0.9304,-0.0534 L -0.9265,-0.1067 L -0.9201,-0.1602 L -0.9111,-0.2139 L -0.8995,-0.2676 L -0.8852,-0.3217 L -0.8681,-0.3760 L -0.8482,-0.4307 L -0.8254,-0.4859 L -0.7996,-0.5417 L -0.7705,-0.5982 L -0.7381,-0.6557 L -0.7020,-0.7143 L -0.6619,-0.7743 L -0.6175,-0.8363 L -0.5680,-0.9006 L -0.5127,-0.9683 L -0.4502,-1.0405 L -0.3784,-1.1193 L -0.2938,-1.2081 L -0.1862,-1.3169 L 0.0000,-1.5000" id="fieldline18"/>
      <g id="fieldline19">
        <path d="M 0.0000,1.5000 L -0.1433,1.2517 L -0.2232,1.1092 L -0.2843,0.9955 L -0.3349,0.8967 L -0.3776,0.8078 L -0.4144,0.7260 L -0.4462,0.6492 L -0.4738,0.5762 L -0.4976,0.5063 L -0.5181,0.4388 L -0.5354,0.3731 L -0.5498,0.3089 L -0.5614,0.2459 L -0.5703,0.1837 L -0.5766,0.1221 L -0.5804,0.0610 L -0.5816,-0.0000"/>
        <g id="arrows19">
          <use xlink:href="#arrow1" transform="translate(-0.4516,0.6345) rotate(-110.88) scale(2.0)"/>
        </g>
      </g>
      <path stroke-dasharray="0.08,0.12" stroke-linecap="butt" d="M -0.5816,0.0000 L -0.5804,-0.0610 L -0.5766,-0.1221 L -0.5703,-0.1837 L -0.5614,-0.2459 L -0.5498,-0.3089 L -0.5354,-0.3731 L -0.5181,-0.4388 L -0.4976,-0.5063 L -0.4738,-0.5762 L -0.4462,-0.6492 L -0.4144,-0.7260 L -0.3776,-0.8078 L -0.3349,-0.8967 L -0.2843,-0.9955 L -0.2232,-1.1092 L -0.1433,-1.2517 L 0.0000,-1.5000" id="fieldline20"/>
      <g id="fieldline21">
        <path d="M 0.0000,1.5000 L -0.0875,1.1702 L -0.1343,0.9864 L -0.1686,0.8433 L -0.1957,0.7206 L -0.2176,0.6116 L -0.2354,0.5117 L -0.2496,0.4184 L -0.2609,0.3298 L -0.2694,0.2447 L -0.2754,0.1619 L -0.2789,0.0807 L -0.2801,-0.0000"/>
        <g id="arrows21">
          <use xlink:href="#arrow1" transform="translate(-0.2179,0.6081) rotate(-100.41) scale(2.0)"/>
        </g>
      </g>
      <path stroke-dasharray="0.08,0.12" stroke-linecap="butt" d="M -0.2801,0.0000 L -0.2789,-0.0807 L -0.2754,-0.1619 L -0.2694,-0.2447 L -0.2609,-0.3298 L -0.2496,-0.4184 L -0.2354,-0.5117 L -0.2176,-0.6116 L -0.1957,-0.7206 L -0.1686,-0.8433 L -0.1343,-0.9864 L -0.0875,-1.1702 L 0.0000,-1.5000" id="fieldline22"/>
      <g id="fieldline23">
        <path d="M 0.0000,1.5000 L -0.0000,-0.0000"/>
        <g id="arrows23">
          <use xlink:href="#arrow1" transform="translate(-0.0000,0.6000) rotate(-90.00) scale(2.0)"/>
        </g>
      </g>
      <path stroke-dasharray="0.08,0.12" stroke-linecap="butt" d="M -0.0000,0.0000 L 0.0000,-1.5000" id="fieldline24"/>
      <g id="fieldline25">
        <path d="M 0.0000,1.5000 L 0.0875,1.1702 L 0.1343,0.9864 L 0.1686,0.8433 L 0.1957,0.7206 L 0.2176,0.6116 L 0.2354,0.5117 L 0.2496,0.4184 L 0.2609,0.3298 L 0.2694,0.2447 L 0.2754,0.1619 L 0.2789,0.0807 L 0.2801,-0.0000"/>
        <g id="arrows25">
          <use xlink:href="#arrow1" transform="translate(0.2179,0.6081) rotate(-79.59) scale(2.0)"/>
        </g>
      </g>
      <path stroke-dasharray="0.08,0.12" stroke-linecap="butt" d="M 0.2801,0.0000 L 0.2789,-0.0807 L 0.2754,-0.1619 L 0.2694,-0.2447 L 0.2609,-0.3298 L 0.2496,-0.4184 L 0.2354,-0.5117 L 0.2176,-0.6116 L 0.1957,-0.7206 L 0.1686,-0.8433 L 0.1343,-0.9864 L 0.0875,-1.1702 L 0.0000,-1.5000" id="fieldline26"/>
      <g id="fieldline27">
        <path d="M 0.0000,1.5000 L 0.1433,1.2517 L 0.2232,1.1092 L 0.2843,0.9955 L 0.3349,0.8967 L 0.3776,0.8078 L 0.4144,0.7260 L 0.4462,0.6492 L 0.4738,0.5762 L 0.4976,0.5063 L 0.5181,0.4388 L 0.5354,0.3731 L 0.5498,0.3089 L 0.5614,0.2459 L 0.5703,0.1837 L 0.5766,0.1221 L 0.5804,0.0610 L 0.5816,-0.0000"/>
        <g id="arrows27">
          <use xlink:href="#arrow1" transform="translate(0.4516,0.6345) rotate(-69.12) scale(2.0)"/>
        </g>
      </g>
      <path stroke-dasharray="0.08,0.12" stroke-linecap="butt" d="M 0.5816,0.0000 L 0.5804,-0.0610 L 0.5766,-0.1221 L 0.5703,-0.1837 L 0.5614,-0.2459 L 0.5498,-0.3089 L 0.5354,-0.3731 L 0.5181,-0.4388 L 0.4976,-0.5063 L 0.4738,-0.5762 L 0.4462,-0.6492 L 0.4144,-0.7260 L 0.3776,-0.8078 L 0.3349,-0.8967 L 0.2843,-0.9955 L 0.2232,-1.1092 L 0.1433,-1.2517 L 0.0000,-1.5000" id="fieldline28"/>
      <g id="fieldline29">
        <path d="M 0.0000,1.5000 L 0.1862,1.3169 L 0.2938,1.2081 L 0.3784,1.1193 L 0.4502,1.0405 L 0.5127,0.9683 L 0.5680,0.9006 L 0.6175,0.8363 L 0.6619,0.7743 L 0.7020,0.7143 L 0.7381,0.6557 L 0.7705,0.5982 L 0.7996,0.5417 L 0.8254,0.4859 L 0.8482,0.4307 L 0.8681,0.3760 L 0.8852,0.3217 L 0.8995,0.2676 L 0.9111,0.2139 L 0.9201,0.1602 L 0.9265,0.1067 L 0.9304,0.0534 L 0.9316,-0.0000"/>
        <g id="arrows29">
          <use xlink:href="#arrow1" transform="translate(0.7197,0.6851) rotate(-58.82) scale(2.0)"/>
        </g>
      </g>
      <path stroke-dasharray="0.08,0.12" stroke-linecap="butt" d="M 0.9316,0.0000 L 0.9304,-0.0534 L 0.9265,-0.1067 L 0.9201,-0.1602 L 0.9111,-0.2139 L 0.8995,-0.2676 L 0.8852,-0.3217 L 0.8681,-0.3760 L 0.8482,-0.4307 L 0.8254,-0.4859 L 0.7996,-0.5417 L 0.7705,-0.5982 L 0.7381,-0.6557 L 0.7020,-0.7143 L 0.6619,-0.7743 L 0.6175,-0.8363 L 0.5680,-0.9006 L 0.5127,-0.9683 L 0.4502,-1.0405 L 0.3784,-1.1193 L 0.2938,-1.2081 L 0.1862,-1.3169 L 0.0000,-1.5000" id="fieldline30"/>
      <g id="fieldline31">
        <path d="M 0.0000,1.5000 L 0.2177,1.3812 L 0.3475,1.3079 L 0.4529,1.2458 L 0.5438,1.1893 L 0.6248,1.1362 L 0.6982,1.0852 L 0.7655,1.0354 L 0.8275,0.9864 L 0.8848,0.9379 L 0.9381,0.8897 L 0.9875,0.8416 L 1.0333,0.7934 L 1.0758,0.7452 L 1.1151,0.6968 L 1.1513,0.6482 L 1.1845,0.5994 L 1.2148,0.5504 L 1.2423,0.5011 L 1.2671,0.4517 L 1.2891,0.4020 L 1.3085,0.3522 L 1.3252,0.3022 L 1.3393,0.2521 L 1.3508,0.2018 L 1.3597,0.1514 L 1.3661,0.1010 L 1.3699,0.0505 L 1.3712,-0.0000"/>
        <g id="arrows31">
          <use xlink:href="#arrow1" transform="translate(1.0508,0.7733) rotate(-49.01) scale(2.0)"/>
        </g>
      </g>
      <path stroke-dasharray="0.08,0.12" stroke-linecap="butt" d="M 1.3712,0.0000 L 1.3699,-0.0505 L 1.3661,-0.1010 L 1.3597,-0.1514 L 1.3508,-0.2018 L 1.3393,-0.2521 L 1.3252,-0.3022 L 1.3085,-0.3522 L 1.2891,-0.4020 L 1.2671,-0.4517 L 1.2423,-0.5011 L 1.2148,-0.5504 L 1.1845,-0.5994 L 1.1513,-0.6482 L 1.1151,-0.6968 L 1.0758,-0.7452 L 1.0333,-0.7934 L 0.9875,-0.8416 L 0.9381,-0.8897 L 0.8848,-0.9379 L 0.8275,-0.9864 L 0.7655,-1.0354 L 0.6982,-1.0852 L 0.6248,-1.1362 L 0.5438,-1.1893 L 0.4529,-1.2458 L 0.3475,-1.3079 L 0.2177,-1.3812 L 0.0000,-1.5000" id="fieldline32"/>
      <g id="fieldline33">
        <path d="M 0.0000,1.5000 L 0.2370,1.4482 L 0.3828,1.4141 L 0.5041,1.3835 L 0.6111,1.3539 L 0.7085,1.3246 L 0.7986,1.2949 L 0.8828,1.2645 L 0.9622,1.2334 L 1.0372,1.2012 L 1.1084,1.1681 L 1.1761,1.1339 L 1.2404,1.0986 L 1.3016,1.0622 L 1.3599,1.0247 L 1.4152,0.9862 L 1.4678,0.9465 L 1.5176,0.9059 L 1.5647,0.8642 L 1.6092,0.8216 L 1.6510,0.7781 L 1.6903,0.7337 L 1.7269,0.6885 L 1.7610,0.6425 L 1.7925,0.5959 L 1.8214,0.5485 L 1.8478,0.5006 L 1.8717,0.4521 L 1.8931,0.4031 L 1.9119,0.3536 L 1.9282,0.3038 L 1.9420,0.2537 L 1.9532,0.2033 L 1.9620,0.1527 L 1.9683,0.1019 L 1.9720,0.0510 L 1.9733,-0.0000"/>
        <g id="arrows33">
          <use xlink:href="#arrow1" transform="translate(1.4937,0.9251) rotate(-39.81) scale(2.0)"/>
        </g>
      </g>
      <path stroke-dasharray="0.08,0.12" stroke-linecap="butt" d="M 1.9733,0.0000 L 1.9720,-0.0510 L 1.9683,-0.1019 L 1.9620,-0.1527 L 1.9532,-0.2033 L 1.9420,-0.2537 L 1.9282,-0.3038 L 1.9119,-0.3536 L 1.8931,-0.4031 L 1.8717,-0.4521 L 1.8478,-0.5006 L 1.8214,-0.5485 L 1.7925,-0.5959 L 1.7610,-0.6425 L 1.7269,-0.6885 L 1.6903,-0.7337 L 1.6510,-0.7781 L 1.6092,-0.8216 L 1.5647,-0.8642 L 1.5176,-0.9059 L 1.4678,-0.9465 L 1.4152,-0.9862 L 1.3599,-1.0247 L 1.3016,-1.0622 L 1.2404,-1.0986 L 1.1761,-1.1339 L 1.1084,-1.1681 L 1.0372,-1.2012 L 0.9622,-1.2334 L 0.8828,-1.2645 L 0.7986,-1.2949 L 0.7085,-1.3246 L 0.6111,-1.3539 L 0.5041,-1.3835 L 0.3828,-1.4141 L 0.2370,-1.4482 L 0.0000,-1.5000" id="fieldline34"/>
      <g id="fieldline35">
        <path d="M 0.0000,1.5000 L 0.2421,1.5182 L 0.3958,1.5276 L 0.5266,1.5334 L 0.6446,1.5363 L 0.7540,1.5367 L 0.8572,1.5347 L 0.9555,1.5304 L 1.0498,1.5239 L 1.1407,1.5153 L 1.2286,1.5045 L 1.3137,1.4917 L 1.3963,1.4768 L 1.4765,1.4600 L 1.5545,1.4412 L 1.6302,1.4204 L 1.7038,1.3978 L 1.7752,1.3733 L 1.8445,1.3470 L 1.9118,1.3189 L 1.9769,1.2891 L 2.0400,1.2576 L 2.1009,1.2245 L 2.1597,1.1898 L 2.2163,1.1536 L 2.2708,1.1159 L 2.3231,1.0768 L 2.3732,1.0364 L 2.4210,0.9947 L 2.4667,0.9517 L 2.5100,0.9076"/>
        <g id="arrows35">
          <use xlink:href="#arrow1" transform="translate(1.5930,1.4305) rotate(-15.60) scale(2.0)"/>
        </g>
      </g>
      <path stroke-dasharray="0.08,0.12" stroke-linecap="butt" d="M 2.5100,-0.9076 L 2.4667,-0.9517 L 2.4210,-0.9947 L 2.3732,-1.0364 L 2.3231,-1.0768 L 2.2708,-1.1159 L 2.2163,-1.1536 L 2.1597,-1.1898 L 2.1009,-1.2245 L 2.0400,-1.2576 L 1.9769,-1.2891 L 1.9118,-1.3189 L 1.8445,-1.3470 L 1.7752,-1.3733 L 1.7038,-1.3978 L 1.6302,-1.4204 L 1.5545,-1.4412 L 1.4765,-1.4600 L 1.3963,-1.4768 L 1.3137,-1.4917 L 1.2286,-1.5045 L 1.1407,-1.5153 L 1.0498,-1.5239 L 0.9555,-1.5304 L 0.8572,-1.5347 L 0.7540,-1.5367 L 0.6446,-1.5363 L 0.5266,-1.5334 L 0.3958,-1.5276 L 0.2421,-1.5182 L 0.0000,-1.5000" id="fieldline36"/>
      <g id="fieldline37">
        <path d="M 0.0000,1.5000 L 0.2356,1.5912 L 0.3900,1.6487 L 0.5244,1.6964 L 0.6480,1.7378 L 0.7649,1.7744 L 0.8770,1.8071 L 0.9857,1.8364 L 1.0918,1.8624 L 1.1956,1.8855 L 1.2977,1.9057 L 1.3981,1.9232 L 1.4972,1.9380 L 1.5950,1.9501 L 1.6916,1.9598 L 1.7870,1.9669 L 1.8814,1.9715 L 1.9746,1.9737 L 2.0667,1.9735 L 2.1577,1.9708 L 2.2476,1.9658 L 2.3363,1.9585 L 2.4237,1.9488 L 2.5100,1.9369"/>
        <g id="arrows37">
          <use xlink:href="#arrow1" transform="translate(1.4816,1.9354) rotate(7.84) scale(2.0)"/>
        </g>
      </g>
      <path stroke-dasharray="0.08,0.12" stroke-linecap="butt" d="M 2.5100,-1.9369 L 2.4237,-1.9488 L 2.3363,-1.9585 L 2.2476,-1.9658 L 2.1577,-1.9708 L 2.0667,-1.9735 L 1.9746,-1.9737 L 1.8814,-1.9715 L 1.7870,-1.9669 L 1.6916,-1.9598 L 1.5950,-1.9501 L 1.4972,-1.9380 L 1.3981,-1.9232 L 1.2977,-1.9057 L 1.1956,-1.8855 L 1.0918,-1.8624 L 0.9857,-1.8364 L 0.8770,-1.8071 L 0.7649,-1.7744 L 0.6480,-1.7378 L 0.5244,-1.6964 L 0.3900,-1.6487 L 0.2356,-1.5912 L 0.0000,-1.5000" id="fieldline38"/>
      <g id="fieldline39">
        <path d="M 0.0000,1.5000 L 0.2149,1.6691 L 0.3601,1.7808 L 0.4896,1.8774 L 0.6111,1.9651 L 0.7280,2.0466 L 0.8422,2.1233 L 0.9547,2.1959 L 1.0661,2.2650 L 1.1769,2.3309 L 1.2874,2.3938 L 1.3977,2.4538 L 1.5080,2.5110 L 1.6185,2.5657 L 1.7291,2.6177 L 1.8400,2.6671 L 1.9511,2.7140 L 2.0624,2.7583 L 2.1740,2.8002 L 2.2858,2.8395 L 2.3978,2.8764 L 2.5100,2.9107"/>
        <g id="arrows39">
          <use xlink:href="#arrow1" transform="translate(1.4375,2.4744) rotate(27.43) scale(2.0)"/>
        </g>
      </g>
      <path stroke-dasharray="0.08,0.12" stroke-linecap="butt" d="M 2.5100,-2.9107 L 2.3978,-2.8764 L 2.2858,-2.8395 L 2.1740,-2.8002 L 2.0624,-2.7583 L 1.9511,-2.7140 L 1.8400,-2.6671 L 1.7291,-2.6177 L 1.6185,-2.5657 L 1.5080,-2.5110 L 1.3977,-2.4538 L 1.2874,-2.3938 L 1.1769,-2.3309 L 1.0661,-2.2650 L 0.9547,-2.1959 L 0.8422,-2.1233 L 0.7280,-2.0466 L 0.6111,-1.9651 L 0.4896,-1.8774 L 0.3601,-1.7808 L 0.2149,-1.6691 L 0.0000,-1.5000" id="fieldline40"/>
      <g id="fieldline41">
        <path d="M 0.0000,1.5000 L 0.1766,1.7558 L 0.3008,1.9319 L 0.4136,2.0878 L 0.5217,2.2332 L 0.6278,2.3719 L 0.7333,2.5058 L 0.8389,2.6360 L 0.9451,2.7632 L 1.0523,2.8878 L 1.1607,3.0100"/>
        <g id="arrows41">
          <use xlink:href="#arrow1" transform="translate(0.6706,2.4262) rotate(51.78) scale(2.0)"/>
        </g>
      </g>
      <path stroke-dasharray="0.08,0.12" stroke-linecap="butt" d="M 1.1607,-3.0100 L 1.0523,-2.8878 L 0.9451,-2.7632 L 0.8389,-2.6360 L 0.7333,-2.5058 L 0.6278,-2.3719 L 0.5217,-2.2332 L 0.4136,-2.0878 L 0.3008,-1.9319 L 0.1766,-1.7558 L 0.0000,-1.5000" id="fieldline42"/>
      <g id="fieldline43">
        <path d="M 0.0000,1.5000 L 0.1117,1.8575 L 0.1953,2.1182 L 0.2727,2.3530 L 0.3488,2.5771 L 0.4250,2.7952 L 0.5024,3.0100"/>
        <g id="arrows43">
          <use xlink:href="#arrow1" transform="translate(0.2918,2.4092) rotate(71.25) scale(2.0)"/>
        </g>
      </g>
      <path stroke-dasharray="0.08,0.12" stroke-linecap="butt" d="M 0.5024,-3.0100 L 0.4250,-2.7952 L 0.3488,-2.5771 L 0.2727,-2.3530 L 0.1953,-2.1182 L 0.1117,-1.8575 L 0.0000,-1.5000" id="fieldline44"/>
    </g>
    <g id="symbols">
      <g id="charge1" transform="translate(0.0,1.5) scale(0.015,0.015)">
        <circle style="fill:#ff0000; stroke:none" cx="0" cy="0" r="14"/>
        <circle cx="0" cy="0" r="14" style="fill:url(#white_spot); stroke:#000000; stroke-width:2"/>
        <path d="M 2,2 V 8 H -2 V 2 H -8 V -2 H -2 V -8 H 2 V -2 H 8 V 2 H 2 Z" style="fill:#000000; stroke:none"/>
      </g>
      <g id="charge2" transform="translate(0.0,-1.5) scale(0.015,0.015)">
        <circle style="fill:#55f; stroke:none" cx="0" cy="0" r="14"/>
        <circle cx="0" cy="0" r="14" style="fill:url(#white_spot); stroke:#000000; stroke-width:2; stroke-linecap:butt; stroke-dasharray:7.5,2"/>
        <path d="M 8,2 H -8 V -2 H 8 V 2 Z" style="fill:#000000; stroke:none"/>
      </g>
      <g id="metal_surface">
        <defs>
          <linearGradient y2="1" gradientUnits="objectBoundingBox" y1="0" x2="0" x1="0" id="metal_grad">
            <stop stop-color="#bbb" stop-opacity="0" offset="0"/>
            <stop stop-color="#bbb" stop-opacity="1" offset="1"/>
          </linearGradient>
        </defs>
        <rect y="-0.8" x="-2.5" style="fill:url(#metal_grad); stroke:none" height="0.8" width="5"/>
        <path style="fill:none; stroke:#000; stroke-width:0.04" d="M -2.5,0 H 2.5"/>
      </g>
    </g>
  </g>
</svg>
